<?xml version="1.0" encoding="UTF-8"?><svg id="Layer_2" xmlns="http://www.w3.org/2000/svg" viewBox="0 0 596.43 88"><g id="VERSION_1"><g><path d="M483.43,16h-34c-3.87,0-7,3.13-7,7V57c0,3.87,3.13,7,7,7h34c3.87,0,7-3.13,7-7V23c0-3.87-3.13-7-7-7Zm-5,31.83c0,2.31-1.87,4.17-4.17,4.17h-15.65c-2.31,0-4.17-1.87-4.17-4.17v-15.65c0-2.31,1.87-4.17,4.17-4.17h15.65c2.31,0,4.17,1.87,4.17,4.17v15.65Z"/><path d="M352.3,16h5.51c2.87,0,4.82,2.9,3.74,5.56l-27.03,66.44h-15.08c1.5-4,11.5-23,11.5-23h-5.87l-16.37-43.64c-.97-2.59,.94-5.36,3.72-5.36h5.78c1.69,0,3.19,1.06,3.76,2.65l13.37,31.46,13.17-31.41c.57-1.62,2.1-2.7,3.81-2.7Z"/><rect x="362.43" y="52" width="12" height="12" rx="4" ry="4"/><rect x="556.43" y="52" width="40" height="12" rx="3.86" ry="3.86"/><path d="M118.47,28h-19.12c-2.17,0-3.92-1.76-3.92-3.92v-4.16c0-2.17,1.76-3.92,3.92-3.92h21.08v10.04c0,1.08-.88,1.96-1.96,1.96Z"/><rect x="92.77" y="52" width="44" height="12" rx="3.83" ry="3.83"/><rect x="108.77" y="16" width="12" height="48"/><path d="M396.43,64h-8c-2.21,0-4-1.79-4-4V4c0-2.21,1.79-4,4-4h4c2.21,0,4,1.79,4,4v60Z"/><path d="M425.43,16h-41V59.1c0,2.7,2.19,4.9,4.9,4.9h36.1c3.87,0,7-3.13,7-7V23c0-3.87-3.13-7-7-7Zm-5,31.83c0,2.31-1.87,4.17-4.17,4.17h-15.65c-2.31,0-4.17-1.87-4.17-4.17v-15.65c0-2.31,1.87-4.17,4.17-4.17h15.65c2.31,0,4.17,1.87,4.17,4.17v15.65Z"/><rect x="108.77" width="12" height="12" rx="4" ry="4"/><g><path d="M541.52,52.41h-13.18c-2.36,0-4.27-1.91-4.27-4.27V2.88c0-1.59-1.3-2.88-2.91-2.88h-5.82c-1.61,0-2.91,1.29-2.91,2.88V52.74c0,8.26,3,11.26,13.03,11.26l16.06-.07c1.61,0,2.91-1.29,2.91-2.88v-5.76c0-1.59-1.3-2.88-2.91-2.88Z"/><path d="M512.43,28h-8c-2.21,0-4-1.79-4-4v-4c0-2.21,1.79-4,4-4h8v12Z"/><path d="M531.43,28h-8v-12h8c2.21,0,4,1.79,4,4v4c0,2.21-1.79,4-4,4Z"/></g><path d="M157.95,16c-4.7,0-9.52,4.73-9.52,9.34v38.66h14s-.03-30.1-.02-36.22h14.02v36.22h14s-.03-25.1-.02-31.22h14.02v31.22h14s-.03-31.29-.02-37.22h.02c0-5.96-3.93-10.78-10.01-10.78,0,0-40.42,0-50.47,0Z"/><path d="M237.95,16c-4.7,0-9.52,4.73-9.52,9.34v38.66h14s-.03-30.1-.02-36.22h14.02v36.22h14s-.03-25.1-.02-31.22h14.02v31.22h14s-.03-31.29-.02-37.22h.02c0-5.96-3.93-10.78-10.01-10.78,0,0-40.42,0-50.47,0Z"/><path d="M60.87,16h-1.97v-5c0-2.76-2.24-5-5-5h-3.21c-2.76,0-5,2.24-5,5v5H9C4.03,16,0,20.03,0,25v30c0,4.97,4.03,9,9,9H60.87c4.97,0,9-4.03,9-9V25c0-4.97-4.03-9-9-9Zm-18.53,35H11v-8h31.33v8Zm15.67-15H11v-8H58v8Z"/></g><g><path d="M483.43,16h-34c-3.87,0-7,3.13-7,7V57c0,3.87,3.13,7,7,7h34c3.87,0,7-3.13,7-7V23c0-3.87-3.13-7-7-7Zm-5,31.83c0,2.31-1.87,4.17-4.17,4.17h-15.65c-2.31,0-4.17-1.87-4.17-4.17v-15.65c0-2.31,1.87-4.17,4.17-4.17h15.65c2.31,0,4.17,1.87,4.17,4.17v15.65Z"/><path d="M352.3,16h5.51c2.87,0,4.82,2.9,3.74,5.56l-27.03,66.44h-15.08c1.5-4,11.5-23,11.5-23h-5.87l-16.37-43.64c-.97-2.59,.94-5.36,3.72-5.36h5.78c1.69,0,3.19,1.06,3.76,2.65l13.37,31.46,13.17-31.41c.57-1.62,2.1-2.7,3.81-2.7Z"/><rect x="362.43" y="52" width="12" height="12" rx="4" ry="4"/><rect x="556.43" y="52" width="40" height="12" rx="3.86" ry="3.86"/><path d="M118.47,28h-19.12c-2.17,0-3.92-1.76-3.92-3.92v-4.16c0-2.17,1.76-3.92,3.92-3.92h21.08v10.04c0,1.08-.88,1.96-1.96,1.96Z"/><rect x="92.77" y="52" width="44" height="12" rx="3.83" ry="3.83"/><rect x="108.77" y="16" width="12" height="48"/><path d="M396.43,64h-8c-2.21,0-4-1.79-4-4V4c0-2.21,1.79-4,4-4h4c2.21,0,4,1.79,4,4v60Z"/><path d="M425.43,16h-41V59.1c0,2.7,2.19,4.9,4.9,4.9h36.1c3.87,0,7-3.13,7-7V23c0-3.87-3.13-7-7-7Zm-5,31.83c0,2.31-1.87,4.17-4.17,4.17h-15.65c-2.31,0-4.17-1.87-4.17-4.17v-15.65c0-2.31,1.87-4.17,4.17-4.17h15.65c2.31,0,4.17,1.87,4.17,4.17v15.65Z"/><rect x="108.77" width="12" height="12" rx="4" ry="4"/><g><path d="M541.52,52.41h-13.18c-2.36,0-4.27-1.91-4.27-4.27V2.88c0-1.59-1.3-2.88-2.91-2.88h-5.82c-1.61,0-2.91,1.29-2.91,2.88V52.74c0,8.26,3,11.26,13.03,11.26l16.06-.07c1.61,0,2.91-1.29,2.91-2.88v-5.76c0-1.59-1.3-2.88-2.91-2.88Z"/><path d="M512.43,28h-8c-2.21,0-4-1.79-4-4v-4c0-2.21,1.79-4,4-4h8v12Z"/><path d="M531.43,28h-8v-12h8c2.21,0,4,1.79,4,4v4c0,2.21-1.79,4-4,4Z"/></g><path d="M157.95,16c-4.7,0-9.52,4.73-9.52,9.34v38.66h14s-.03-30.1-.02-36.22h14.02v36.22h14s-.03-25.1-.02-31.22h14.02v31.22h14s-.03-31.29-.02-37.22h.02c0-5.96-3.93-10.78-10.01-10.78,0,0-40.42,0-50.47,0Z"/><path d="M237.95,16c-4.7,0-9.52,4.73-9.52,9.34v38.66h14s-.03-30.1-.02-36.22h14.02v36.22h14s-.03-25.1-.02-31.22h14.02v31.22h14s-.03-31.29-.02-37.22h.02c0-5.96-3.93-10.78-10.01-10.78,0,0-40.42,0-50.47,0Z"/><path d="M60.87,16h-1.97v-5c0-2.76-2.24-5-5-5h-3.21c-2.76,0-5,2.24-5,5v5H9C4.03,16,0,20.03,0,25v30c0,4.97,4.03,9,9,9H60.87c4.97,0,9-4.03,9-9V25c0-4.97-4.03-9-9-9Zm-18.53,35H11v-8h31.33v8Zm15.67-15H11v-8H58v8Z"/></g></g></svg>
